<svg xmlns="http://www.w3.org/2000/svg" xmlns:xlink="http://www.w3.org/1999/xlink" width="500" zoomAndPan="magnify" viewBox="0 0 375 374.999991" height="500" preserveAspectRatio="xMidYMid meet" version="1.0"><defs><g/><clipPath id="50b120aa0c"><path d="M 187.5 0 C 83.945312 0 0 83.945312 0 187.5 C 0 291.054688 83.945312 375 187.5 375 C 291.054688 375 375 291.054688 375 187.5 C 375 83.945312 291.054688 0 187.5 0 Z M 187.5 0 " clip-rule="nonzero"/></clipPath><clipPath id="659f49a80c"><path d="M 136 121 L 239 121 L 239 209.023438 L 136 209.023438 Z M 136 121 " clip-rule="nonzero"/></clipPath><clipPath id="ff45ad5376"><path d="M 174 100.273438 L 190 100.273438 L 190 116 L 174 116 Z M 174 100.273438 " clip-rule="nonzero"/></clipPath></defs><g clip-path="url(#50b120aa0c)"><rect x="-37.5" width="450" fill="#ffffff" y="-37.499999" height="449.999989" fill-opacity="1"/></g><g clip-path="url(#659f49a80c)"><path fill="#5cb6f9" d="M 231.207031 143.542969 C 229.050781 142.410156 228.410156 141.058594 228.519531 140.246094 C 228.566406 139.871094 228.761719 139.605469 229.027344 139.546875 C 229.066406 139.535156 229.113281 139.53125 229.160156 139.53125 C 229.570312 139.53125 230.222656 139.898438 230.914062 140.960938 C 231.621094 142.058594 232.011719 143.035156 232.070312 143.882812 C 231.800781 143.8125 231.511719 143.699219 231.207031 143.542969 Z M 228.433594 145.082031 C 228.878906 145.414062 229.371094 145.726562 229.910156 146.007812 C 230.230469 146.175781 230.550781 146.316406 230.875 146.425781 C 230.515625 146.71875 230.109375 146.960938 229.703125 147.164062 C 229.300781 146.457031 228.878906 145.761719 228.433594 145.082031 Z M 215.53125 191.929688 L 214.652344 202.894531 C 214.652344 202.894531 213.527344 203.773438 211.496094 203.773438 C 210.457031 203.773438 209.183594 203.542969 207.699219 202.847656 L 205.921875 196.539062 C 203.089844 197.359375 200.101562 197.820312 197.007812 197.820312 C 197.007812 197.820312 192.46875 197.894531 188.195312 197.894531 C 183.921875 197.894531 180.058594 197.820312 180.058594 197.820312 C 177.140625 197.820312 174.324219 197.398438 171.636719 196.667969 L 169.902344 202.847656 C 168.503906 203.449219 167.296875 203.65625 166.300781 203.65625 C 164.132812 203.65625 162.953125 202.683594 162.953125 202.683594 L 162.363281 192.507812 C 156.0625 188.351562 151.324219 182.050781 149.164062 174.632812 L 142.707031 172.636719 C 142.707031 172.636719 141.039062 167.613281 141.527344 161.730469 L 148.832031 157.886719 C 150.765625 150.066406 155.527344 143.355469 162.007812 138.953125 L 158.722656 127.242188 C 158.722656 127.242188 160.238281 126.652344 162.347656 126.652344 C 165.46875 126.652344 169.886719 127.941406 172.644531 134.308594 C 174.066406 133.976562 175.523438 133.734375 177.007812 133.585938 C 177.222656 136.160156 178.414062 138.449219 180.207031 140.105469 C 178.585938 140.207031 177.601562 140.308594 177.476562 140.320312 C 176.496094 140.429688 175.785156 141.308594 175.890625 142.289062 C 175.996094 143.273438 176.894531 143.972656 177.855469 143.875 C 177.957031 143.863281 187.777344 142.839844 198.898438 144.113281 C 198.964844 144.121094 199.035156 144.125 199.105469 144.125 C 199.996094 144.125 200.773438 143.453125 200.875 142.542969 C 200.988281 141.5625 200.285156 140.675781 199.304688 140.566406 C 197.410156 140.347656 195.558594 140.195312 193.789062 140.089844 C 195.613281 138.402344 196.804688 136.050781 196.980469 133.417969 C 196.992188 133.417969 197.007812 133.421875 197.007812 133.421875 C 214.789062 133.421875 229.207031 147.839844 229.207031 165.617188 C 229.207031 176.5 223.792969 186.105469 215.53125 191.929688 Z M 191.027344 127.71875 C 191.394531 128.011719 191.722656 128.34375 192.015625 128.707031 C 192.03125 128.726562 192.046875 128.746094 192.058594 128.765625 C 192.183594 128.921875 192.296875 129.082031 192.40625 129.25 C 192.4375 129.296875 192.464844 129.347656 192.496094 129.398438 C 192.582031 129.539062 192.664062 129.683594 192.738281 129.828125 C 192.773438 129.894531 192.804688 129.960938 192.835938 130.027344 C 192.898438 130.164062 192.957031 130.304688 193.011719 130.449219 C 193.042969 130.523438 193.070312 130.597656 193.097656 130.675781 C 193.144531 130.816406 193.183594 130.960938 193.222656 131.105469 C 193.242188 131.183594 193.265625 131.261719 193.285156 131.34375 C 193.320312 131.5 193.34375 131.65625 193.367188 131.816406 C 193.378906 131.890625 193.394531 131.960938 193.402344 132.035156 C 193.425781 132.265625 193.441406 132.503906 193.441406 132.742188 C 193.441406 132.878906 193.429688 133.011719 193.421875 133.144531 C 193.210938 136.515625 190.414062 139.195312 186.992188 139.195312 C 183.644531 139.195312 180.886719 136.636719 180.570312 133.375 C 180.550781 133.164062 180.539062 132.957031 180.539062 132.742188 C 180.539062 132.507812 180.550781 132.277344 180.578125 132.050781 C 180.582031 131.980469 180.597656 131.914062 180.609375 131.84375 C 180.628906 131.6875 180.652344 131.527344 180.6875 131.371094 C 180.703125 131.300781 180.726562 131.226562 180.742188 131.15625 C 180.78125 131.007812 180.820312 130.859375 180.867188 130.714844 C 180.890625 130.648438 180.917969 130.582031 180.941406 130.515625 C 180.996094 130.371094 181.054688 130.226562 181.117188 130.085938 C 181.144531 130.023438 181.171875 129.96875 181.203125 129.914062 C 181.273438 129.765625 181.351562 129.621094 181.433594 129.476562 C 181.460938 129.433594 181.488281 129.386719 181.515625 129.339844 C 181.613281 129.191406 181.710938 129.042969 181.816406 128.902344 C 181.84375 128.871094 181.863281 128.839844 181.890625 128.808594 C 182.007812 128.652344 182.132812 128.503906 182.265625 128.363281 C 182.285156 128.34375 182.296875 128.328125 182.3125 128.308594 C 182.464844 128.152344 182.625 128 182.789062 127.855469 C 183.917969 126.882812 185.386719 126.292969 186.992188 126.292969 C 188.519531 126.292969 189.921875 126.828125 191.027344 127.71875 Z M 234.273438 146.621094 C 235.414062 146.351562 236.46875 145.734375 237.316406 144.789062 C 239.101562 142.804688 239.375 140.085938 238 138.023438 C 237.570312 137.382812 236.707031 137.214844 236.070312 137.636719 C 235.429688 138.066406 235.253906 138.929688 235.683594 139.570312 C 236.441406 140.707031 236.011719 142.074219 235.246094 142.921875 C 235.15625 143.019531 235.015625 143.167969 234.820312 143.316406 C 234.65625 142.101562 234.136719 140.808594 233.25 139.445312 C 231.941406 137.421875 230.125 136.445312 228.417969 136.828125 C 227 137.144531 225.957031 138.34375 225.753906 139.878906 C 225.675781 140.46875 225.722656 141.050781 225.875 141.621094 C 219.050781 133.429688 208.816406 128.171875 197.367188 128.0625 C 197.027344 128.019531 196.496094 127.96875 195.769531 127.914062 C 194.0625 124.820312 190.769531 122.71875 186.992188 122.71875 C 183.128906 122.71875 179.773438 124.917969 178.101562 128.125 C 177.21875 128.175781 176.339844 128.246094 175.449219 128.359375 C 172.28125 123.820312 167.675781 121.292969 162.351562 121.292969 C 159.378906 121.292969 157.1875 122.089844 156.777344 122.25 C 154.207031 123.25 152.816406 126.039062 153.5625 128.691406 L 155.863281 136.894531 C 150.460938 141.457031 146.453125 147.445312 144.300781 154.214844 L 139.03125 156.984375 C 137.410156 157.839844 136.335938 159.460938 136.183594 161.285156 C 135.621094 168.066406 137.414062 173.707031 137.621094 174.328125 C 138.167969 175.96875 139.472656 177.246094 141.125 177.757812 L 144.960938 178.945312 C 147.421875 185.429688 151.648438 191.125 157.160156 195.375 L 157.605469 202.992188 C 157.691406 204.480469 158.394531 205.867188 159.542969 206.816406 C 160.167969 207.332031 162.5 209.015625 166.300781 209.015625 C 168.179688 209.015625 170.105469 208.59375 172.027344 207.769531 C 173.511719 207.128906 174.628906 205.851562 175.066406 204.292969 L 175.460938 202.882812 C 177 203.082031 178.535156 203.179688 180.054688 203.179688 C 180.023438 203.179688 183.90625 203.253906 188.195312 203.253906 C 192.511719 203.253906 197.09375 203.179688 197.09375 203.179688 C 197.097656 203.179688 197.101562 203.179688 197.101562 203.179688 C 198.757812 203.179688 200.441406 203.058594 202.125 202.824219 L 202.539062 204.296875 C 202.960938 205.796875 204.015625 207.035156 205.421875 207.695312 C 207.449219 208.648438 209.492188 209.132812 211.496094 209.132812 C 215.089844 209.132812 217.34375 207.59375 217.949219 207.121094 C 219.132812 206.199219 219.875 204.820312 219.996094 203.324219 L 220.683594 194.746094 C 229.421875 187.636719 234.570312 176.929688 234.570312 165.617188 C 234.570312 159.902344 233.28125 154.484375 230.988281 149.632812 C 232.210938 149.015625 233.527344 148.058594 234.273438 146.621094 " fill-opacity="1" fill-rule="nonzero"/></g><path fill="#5cb6f9" d="M 159.683594 148.699219 C 158.070312 148.699219 156.800781 150.308594 156.800781 152.363281 C 156.800781 154.414062 158.070312 156.023438 159.683594 156.023438 C 161.300781 156.023438 162.570312 154.414062 162.570312 152.363281 C 162.570312 150.308594 161.300781 148.699219 159.683594 148.699219 " fill-opacity="1" fill-rule="nonzero"/><path fill="#5cb6f9" d="M 182.871094 167.421875 C 182.375 166.945312 182.027344 166.433594 181.839844 165.917969 C 181.625 165.324219 181.492188 164.734375 181.445312 164.164062 C 181.347656 162.371094 181.910156 160.859375 183.171875 159.542969 C 184.203125 158.472656 185.671875 157.792969 187.546875 157.527344 L 187.546875 169.726562 C 186.570312 169.527344 185.757812 169.265625 185.109375 168.941406 C 184.179688 168.46875 183.425781 167.957031 182.871094 167.421875 Z M 195.683594 183.890625 C 195.300781 184.359375 194.734375 184.796875 194.007812 185.1875 C 193.539062 185.441406 192.949219 185.632812 192.242188 185.765625 L 192.242188 174.660156 C 193.640625 175.097656 194.699219 175.722656 195.394531 176.519531 C 196.308594 177.570312 196.746094 179.1875 196.699219 181.328125 L 196.699219 181.359375 C 196.699219 181.5 196.667969 181.839844 196.464844 182.488281 C 196.316406 182.960938 196.058594 183.417969 195.683594 183.890625 Z M 199.296875 174.824219 C 198.617188 173.777344 197.613281 172.832031 196.328125 172.023438 C 195.257812 171.332031 193.914062 170.800781 192.242188 170.417969 L 192.242188 157.949219 C 192.5625 158.082031 192.855469 158.238281 193.125 158.421875 C 193.804688 158.882812 194.386719 159.410156 194.855469 159.988281 C 195.304688 160.539062 195.644531 161.152344 195.867188 161.816406 C 196.101562 162.542969 196.246094 163.226562 196.300781 163.902344 C 196.464844 165.324219 197.492188 165.847656 198.488281 165.753906 C 198.964844 165.691406 200.105469 165.378906 200.457031 163.480469 C 200.386719 160.625 199.464844 158.300781 197.71875 156.566406 C 196.246094 155.113281 194.410156 154.160156 192.242188 153.71875 L 192.242188 151.855469 C 192.242188 150.9375 191.808594 150.378906 191.410156 150.042969 C 190.441406 149.28125 189.148438 149.300781 188.253906 150.117188 C 187.929688 150.421875 187.546875 150.972656 187.546875 151.855469 L 187.546875 153.457031 C 186.246094 153.589844 185.015625 153.871094 183.875 154.300781 C 182.378906 154.859375 181.097656 155.644531 180.054688 156.636719 C 179.019531 157.621094 178.230469 158.789062 177.703125 160.113281 C 177.171875 161.460938 176.972656 162.894531 177.113281 164.390625 C 177.410156 167.128906 178.5625 169.371094 180.535156 171.0625 C 182.28125 172.550781 184.605469 173.492188 187.546875 173.878906 L 187.546875 185.839844 C 185.449219 185.617188 183.789062 185.054688 182.601562 184.160156 C 181.191406 183.089844 180.335938 181.824219 180.007812 180.394531 C 179.890625 179.570312 179.261719 178.671875 177.859375 178.621094 C 177.015625 178.574219 176.488281 178.933594 176.230469 179.242188 C 175.972656 179.546875 175.699219 180.085938 175.875 180.882812 C 176.414062 183.792969 177.917969 186.046875 180.34375 187.585938 C 182.367188 188.867188 184.785156 189.636719 187.546875 189.886719 L 187.546875 191.347656 C 187.546875 192.257812 187.941406 192.808594 188.285156 193.121094 C 188.734375 193.515625 189.277344 193.726562 189.851562 193.726562 C 190.398438 193.726562 190.914062 193.539062 191.421875 193.15625 C 191.953125 192.726562 192.242188 192.085938 192.242188 191.347656 L 192.242188 189.835938 C 194.902344 189.46875 196.933594 188.519531 198.304688 187.015625 C 199.828125 185.328125 200.671875 183.453125 200.804688 181.488281 C 200.914062 180.464844 200.859375 179.386719 200.636719 178.195312 C 200.414062 176.992188 199.964844 175.863281 199.296875 174.824219 " fill-opacity="1" fill-rule="nonzero"/><path fill="#5cb6f9" d="M 200.324219 111.878906 C 201.550781 111.878906 202.554688 112.878906 202.554688 114.109375 C 202.554688 115.339844 201.550781 116.339844 200.324219 116.339844 C 199.09375 116.339844 198.09375 115.339844 198.09375 114.109375 C 198.09375 112.878906 199.09375 111.878906 200.324219 111.878906 Z M 200.324219 119.914062 C 203.523438 119.914062 206.125 117.308594 206.125 114.109375 C 206.125 110.910156 203.523438 108.308594 200.324219 108.308594 C 197.125 108.308594 194.519531 110.910156 194.519531 114.109375 C 194.519531 117.308594 197.125 119.914062 200.324219 119.914062 " fill-opacity="1" fill-rule="nonzero"/><g clip-path="url(#ff45ad5376)"><path fill="#5cb6f9" d="M 181.980469 103.910156 C 184.324219 103.910156 186.230469 105.816406 186.230469 108.15625 C 186.230469 110.5 184.324219 112.40625 181.980469 112.40625 C 179.636719 112.40625 177.734375 110.5 177.734375 108.15625 C 177.734375 105.816406 179.636719 103.910156 181.980469 103.910156 Z M 181.980469 115.980469 C 186.292969 115.980469 189.800781 112.46875 189.800781 108.15625 C 189.800781 103.84375 186.292969 100.335938 181.980469 100.335938 C 177.667969 100.335938 174.160156 103.84375 174.160156 108.15625 C 174.160156 112.46875 177.667969 115.980469 181.980469 115.980469 " fill-opacity="1" fill-rule="nonzero"/></g><g fill="#5cb6f9" fill-opacity="1"><g transform="translate(92.985448, 249.558778)"><g><path d="M 7.054688 0.191406 C 10.308594 0.191406 12.96875 -1.746094 12.96875 -4.960938 C 12.96875 -10.609375 4.730469 -9.523438 4.730469 -12.726562 C 4.730469 -13.8125 5.671875 -14.546875 6.875 -14.546875 C 8.019531 -14.546875 9.03125 -13.882812 9.621094 -12.726562 L 12.160156 -14.28125 C 10.992188 -16.351562 9.078125 -17.265625 6.984375 -17.265625 C 4.117188 -17.265625 1.671875 -15.582031 1.671875 -12.570312 C 1.671875 -7.03125 9.910156 -8.210938 9.910156 -4.683594 C 9.910156 -3.480469 8.921875 -2.515625 7.105469 -2.515625 C 5.296875 -2.515625 3.792969 -3.457031 3.578125 -5.574219 L 0.542969 -4.804688 C 1.082031 -1.457031 4.046875 0.191406 7.054688 0.191406 Z M 7.054688 0.191406 "/></g></g></g><g fill="#5cb6f9" fill-opacity="1"><g transform="translate(106.674, 249.558778)"><g><path d="M 5.03125 0.242188 C 6.464844 0.242188 7.742188 -0.214844 8.777344 -1.722656 L 8.96875 0 L 11.390625 0 L 11.390625 -7.296875 C 11.390625 -10.234375 9.464844 -12.28125 6.1875 -12.28125 C 3.816406 -12.28125 2.289062 -11.222656 1.132812 -9.644531 L 3.382812 -8.019531 C 3.902344 -8.898438 4.828125 -9.71875 6.214844 -9.71875 C 7.765625 -9.71875 8.585938 -8.707031 8.585938 -7.175781 L 5.453125 -7.175781 C 2.757812 -7.175781 0.664062 -6.308594 0.664062 -3.695312 C 0.664062 -1.179688 2.566406 0.242188 5.03125 0.242188 Z M 5.453125 -2.238281 C 4.3125 -2.238281 3.671875 -2.804688 3.671875 -3.601562 C 3.671875 -4.359375 4.285156 -5.058594 5.625 -5.058594 L 8.585938 -5.058594 C 8.535156 -3.550781 7.128906 -2.238281 5.453125 -2.238281 Z M 5.453125 -2.238281 "/></g></g></g><g fill="#5cb6f9" fill-opacity="1"><g transform="translate(119.447574, 249.558778)"><g><path d="M 4.804688 0 L 7.222656 0 L 12.136719 -12.027344 L 8.945312 -12.027344 L 6.019531 -3.792969 L 3.105469 -12.027344 L -0.0976562 -12.027344 Z M 4.804688 0 "/></g></g></g><g fill="#5cb6f9" fill-opacity="1"><g transform="translate(131.474719, 249.558778)"><g><path d="M 1.671875 -14.304688 L 4.730469 -14.304688 L 4.730469 -17.015625 L 1.671875 -17.015625 Z M 1.746094 0 L 4.660156 0 L 4.660156 -12.027344 L 1.746094 -12.027344 Z M 1.746094 0 "/></g></g></g><g fill="#5cb6f9" fill-opacity="1"><g transform="translate(137.879565, 249.558778)"><g><path d="M 1.746094 0 L 4.660156 0 L 4.660156 -6.585938 C 4.660156 -8.679688 5.71875 -9.574219 7.367188 -9.574219 C 8.875 -9.574219 9.667969 -8.429688 9.667969 -6.851562 L 9.667969 0 L 12.570312 0 L 12.570312 -7.222656 C 12.570312 -9.742188 11.367188 -12.28125 8.210938 -12.28125 C 7.03125 -12.28125 5.625 -11.8125 4.660156 -10.632812 L 4.660156 -12.027344 L 1.746094 -12.027344 Z M 1.746094 0 "/></g></g></g><g fill="#5cb6f9" fill-opacity="1"><g transform="translate(151.857057, 249.558778)"><g><path d="M 7.25 -1.878906 C 5.105469 -2.144531 3.625 -2.167969 3.625 -3.15625 C 3.625 -3.433594 3.734375 -3.636719 3.972656 -3.792969 C 4.660156 -3.492188 5.429688 -3.324219 6.261719 -3.324219 C 8.898438 -3.324219 11.148438 -5.03125 11.148438 -7.71875 C 11.148438 -8.5 10.96875 -9.210938 10.632812 -9.8125 L 12.378906 -11.222656 L 10.847656 -13.089844 L 9.007812 -11.511719 C 8.199219 -12.003906 7.210938 -12.28125 6.164062 -12.28125 C 3.503906 -12.28125 1.226562 -10.476562 1.226562 -7.863281 C 1.226562 -6.804688 1.601562 -5.851562 2.226562 -5.09375 C 1.515625 -4.46875 1.109375 -3.683594 1.109375 -2.613281 C 1.109375 -1.457031 1.578125 -0.722656 2.289062 -0.242188 L 1.035156 0.890625 C 1.011719 1.011719 0.988281 1.132812 0.988281 1.410156 C 0.988281 3.878906 3.058594 5.695312 6.609375 5.695312 C 9.597656 5.695312 11.933594 4.394531 11.933594 1.671875 C 11.933594 -1.082031 9.523438 -1.578125 7.25 -1.878906 Z M 6.261719 -10.007812 C 7.550781 -10.007812 8.234375 -9.101562 8.234375 -7.839844 C 8.234375 -6.609375 7.574219 -5.71875 6.261719 -5.71875 C 4.960938 -5.71875 4.261719 -6.609375 4.261719 -7.839844 C 4.261719 -9.101562 4.984375 -10.007812 6.261719 -10.007812 Z M 6.632812 3.382812 C 4.914062 3.382812 3.625 2.757812 3.457031 1.480469 L 4.070312 0.46875 C 4.78125 0.636719 5.539062 0.710938 6.214844 0.792969 C 8.117188 1.011719 9.152344 1.132812 9.152344 2.023438 C 9.152344 2.890625 8.164062 3.382812 6.632812 3.382812 Z M 6.632812 3.382812 "/></g></g></g><g fill="#5cb6f9" fill-opacity="1"><g transform="translate(164.486161, 249.558778)"><g/></g></g><g fill="#5cb6f9" fill-opacity="1"><g transform="translate(170.409439, 249.558778)"><g><path d="M 2.191406 0 L 5.226562 0 L 5.226562 -7.054688 L 7.527344 -7.054688 C 10.992188 -7.054688 13.535156 -8.800781 13.535156 -11.980469 C 13.535156 -15.195312 10.992188 -17.015625 7.527344 -17.015625 L 2.191406 -17.015625 Z M 5.226562 -9.910156 L 5.226562 -14.160156 L 7.527344 -14.160156 C 9.597656 -14.160156 10.5 -13.367188 10.5 -11.980469 C 10.5 -10.632812 9.621094 -9.910156 7.527344 -9.910156 Z M 5.226562 -9.910156 "/></g></g></g><g fill="#5cb6f9" fill-opacity="1"><g transform="translate(184.459167, 249.558778)"><g><path d="M 5.769531 0.242188 C 7.199219 0.242188 8.453125 -0.277344 9.320312 -1.410156 L 9.320312 0 L 12.304688 0 L 12.304688 -12.027344 L 9.320312 -12.027344 L 9.320312 -6.609375 C 9.320312 -3.128906 7.910156 -2.421875 6.539062 -2.421875 C 4.757812 -2.421875 4.359375 -3.625 4.359375 -5.597656 L 4.359375 -12.027344 L 1.382812 -12.027344 L 1.382812 -5.695312 C 1.382812 -2.070312 2.734375 0.242188 5.769531 0.242188 Z M 5.769531 0.242188 "/></g></g></g><g fill="#5cb6f9" fill-opacity="1"><g transform="translate(198.508894, 249.558778)"><g><path d="M 1.746094 0 L 4.585938 0 L 4.585938 -5.082031 C 4.585938 -8.140625 6.019531 -9.417969 7.394531 -9.417969 C 7.863281 -9.417969 8.308594 -9.273438 8.707031 -9.007812 L 10.042969 -11.414062 C 9.464844 -12.003906 8.632812 -12.28125 7.839844 -12.28125 C 6.488281 -12.28125 5.128906 -11.464844 4.613281 -10.007812 L 4.613281 -12.027344 L 1.746094 -12.027344 Z M 1.746094 0 "/></g></g></g><g fill="#5cb6f9" fill-opacity="1"><g transform="translate(208.320829, 249.558778)"><g><path d="M 6.515625 0.242188 C 8.898438 0.242188 10.777344 -1.082031 11.570312 -3.324219 L 8.898438 -4.335938 C 8.585938 -3.203125 7.671875 -2.421875 6.488281 -2.421875 C 4.441406 -2.421875 3.671875 -4.167969 3.671875 -5.996094 C 3.671875 -7.789062 4.46875 -9.621094 6.488281 -9.621094 C 7.695312 -9.621094 8.585938 -8.800781 8.898438 -7.644531 L 11.691406 -8.730469 C 10.777344 -11.125 8.875 -12.28125 6.488281 -12.28125 C 2.566406 -12.28125 0.6875 -9.152344 0.6875 -5.996094 C 0.6875 -2.804688 2.589844 0.242188 6.515625 0.242188 Z M 6.515625 0.242188 "/></g></g></g><g fill="#5cb6f9" fill-opacity="1"><g transform="translate(220.408169, 249.558778)"><g><path d="M 1.769531 0 L 4.757812 0 L 4.757812 -6.09375 C 4.757812 -8.089844 5.648438 -9.621094 7.527344 -9.621094 C 9.296875 -9.621094 9.691406 -8.332031 9.691406 -6.851562 L 9.691406 0 L 12.679688 0 L 12.679688 -7.222656 C 12.679688 -9.742188 11.390625 -12.28125 8.234375 -12.28125 C 7.054688 -12.28125 5.71875 -11.8125 4.757812 -10.632812 L 4.757812 -17.015625 L 1.769531 -17.015625 Z M 1.769531 0 "/></g></g></g><g fill="#5cb6f9" fill-opacity="1"><g transform="translate(234.481975, 249.558778)"><g><path d="M 5.03125 0.242188 C 6.464844 0.242188 7.742188 -0.214844 8.777344 -1.722656 L 8.96875 0 L 11.390625 0 L 11.390625 -7.296875 C 11.390625 -10.234375 9.464844 -12.28125 6.1875 -12.28125 C 3.816406 -12.28125 2.289062 -11.222656 1.132812 -9.644531 L 3.382812 -8.019531 C 3.902344 -8.898438 4.828125 -9.71875 6.214844 -9.71875 C 7.765625 -9.71875 8.585938 -8.707031 8.585938 -7.175781 L 5.453125 -7.175781 C 2.757812 -7.175781 0.664062 -6.308594 0.664062 -3.695312 C 0.664062 -1.179688 2.566406 0.242188 5.03125 0.242188 Z M 5.453125 -2.238281 C 4.3125 -2.238281 3.671875 -2.804688 3.671875 -3.601562 C 3.671875 -4.359375 4.285156 -5.058594 5.625 -5.058594 L 8.585938 -5.058594 C 8.535156 -3.550781 7.128906 -2.238281 5.453125 -2.238281 Z M 5.453125 -2.238281 "/></g></g></g><g fill="#5cb6f9" fill-opacity="1"><g transform="translate(247.255549, 249.558778)"><g><path d="M 5.371094 0.242188 C 7.644531 0.242188 10.066406 -0.988281 10.066406 -3.769531 C 10.066406 -8.1875 3.949219 -7.105469 3.949219 -8.921875 C 3.949219 -9.488281 4.539062 -9.957031 5.503906 -9.957031 C 6.804688 -9.957031 7.476562 -9.175781 7.886719 -8.429688 L 10.164062 -9.667969 C 9.246094 -11.292969 7.671875 -12.28125 5.597656 -12.28125 C 3.273438 -12.28125 1.132812 -11.078125 1.132812 -8.535156 C 1.132812 -4.285156 7.175781 -5.648438 7.175781 -3.625 C 7.175781 -2.984375 6.585938 -2.191406 5.226562 -2.191406 C 3.625 -2.191406 2.984375 -3.300781 2.660156 -4.167969 L 0.324219 -3.128906 C 0.914062 -1.277344 2.839844 0.242188 5.371094 0.242188 Z M 5.371094 0.242188 "/></g></g></g><g fill="#5cb6f9" fill-opacity="1"><g transform="translate(258.199167, 249.558778)"><g><path d="M 6.753906 0.242188 C 8.777344 0.242188 10.378906 -0.46875 11.691406 -1.925781 L 9.667969 -3.695312 C 8.824219 -2.757812 7.863281 -2.421875 6.777344 -2.421875 C 4.886719 -2.421875 4.023438 -3.480469 3.769531 -5.058594 L 12.027344 -5.058594 C 12.089844 -5.226562 12.136719 -5.71875 12.136719 -6.214844 C 12.136719 -8.898438 10.777344 -12.28125 6.5625 -12.28125 C 2.492188 -12.28125 0.664062 -9.101562 0.664062 -5.972656 C 0.664062 -2.734375 2.613281 0.242188 6.753906 0.242188 Z M 3.769531 -7.175781 C 4.046875 -8.679688 4.804688 -9.8125 6.539062 -9.8125 C 8.066406 -9.8125 9.054688 -8.898438 9.246094 -7.175781 Z M 3.769531 -7.175781 "/></g></g></g><g fill="#5cb6f9" fill-opacity="1"><g transform="translate(271.044977, 249.558778)"><g><path d="M 5.371094 0.242188 C 7.644531 0.242188 10.066406 -0.988281 10.066406 -3.769531 C 10.066406 -8.1875 3.949219 -7.105469 3.949219 -8.921875 C 3.949219 -9.488281 4.539062 -9.957031 5.503906 -9.957031 C 6.804688 -9.957031 7.476562 -9.175781 7.886719 -8.429688 L 10.164062 -9.667969 C 9.246094 -11.292969 7.671875 -12.28125 5.597656 -12.28125 C 3.273438 -12.28125 1.132812 -11.078125 1.132812 -8.535156 C 1.132812 -4.285156 7.175781 -5.648438 7.175781 -3.625 C 7.175781 -2.984375 6.585938 -2.191406 5.226562 -2.191406 C 3.625 -2.191406 2.984375 -3.300781 2.660156 -4.167969 L 0.324219 -3.128906 C 0.914062 -1.277344 2.839844 0.242188 5.371094 0.242188 Z M 5.371094 0.242188 "/></g></g></g></svg>